<?xml version="1.0"?>
<svg xmlns="http://www.w3.org/2000/svg" xmlns:xlink="http://www.w3.org/1999/xlink" xmlns:svgjs="http://svgjs.com/svgjs" version="1.1" width="512" height="512" x="0" y="0" viewBox="0 0 32.001 32.001" style="enable-background:new 0 0 512 512" xml:space="preserve" class=""><g>
<g xmlns="http://www.w3.org/2000/svg">
	<g>
		<path d="M31.019,4.255c-2.438-1.906-13.561,2.33-14.038,7.998c-0.163,1.713,0.349,3.382,1.416,4.696    c-0.926,0.941-1.591,2.279-1.79,3.972c-0.487,5.175,9.634,8.543,11.472,6.844c1.214-1.123,0.773-5.623-0.954-8.866    C31.793,16.1,33.15,5.924,31.019,4.255z" fill="#0d9fff" data-original="#000000" style="" class=""/>
		<path d="M13.604,16.949c1.065-1.314,1.578-2.983,1.415-4.696c-0.477-5.668-11.6-9.904-14.037-7.998    C-1.15,5.924,0.207,16.1,4.875,18.897c-1.727,3.243-2.167,7.743-0.954,8.866c1.837,1.699,11.959-1.67,11.472-6.844    C15.196,19.229,14.53,17.892,13.604,16.949z" fill="#0d9fff" data-original="#000000" style="" class=""/>
	</g>
</g>
<g xmlns="http://www.w3.org/2000/svg">
</g>
<g xmlns="http://www.w3.org/2000/svg">
</g>
<g xmlns="http://www.w3.org/2000/svg">
</g>
<g xmlns="http://www.w3.org/2000/svg">
</g>
<g xmlns="http://www.w3.org/2000/svg">
</g>
<g xmlns="http://www.w3.org/2000/svg">
</g>
<g xmlns="http://www.w3.org/2000/svg">
</g>
<g xmlns="http://www.w3.org/2000/svg">
</g>
<g xmlns="http://www.w3.org/2000/svg">
</g>
<g xmlns="http://www.w3.org/2000/svg">
</g>
<g xmlns="http://www.w3.org/2000/svg">
</g>
<g xmlns="http://www.w3.org/2000/svg">
</g>
<g xmlns="http://www.w3.org/2000/svg">
</g>
<g xmlns="http://www.w3.org/2000/svg">
</g>
<g xmlns="http://www.w3.org/2000/svg">
</g>
</g></svg>
